<?xml version="1.0" encoding="iso-8859-1"?>
<!-- Generator: Adobe Illustrator 19.0.0, SVG Export Plug-In . SVG Version: 6.00 Build 0)  -->
<svg version="1.1" id="Layer_1" xmlns="http://www.w3.org/2000/svg" xmlns:xlink="http://www.w3.org/1999/xlink" x="0px" y="0px"
	 viewBox="0 0 361.875 361.875" style="enable-background:new 0 0 361.875 361.875;" xml:space="preserve">
<g>
	<g>
		<g>
			<path d="M336.875,49.448H25c-13.785,0-25,11.215-25,25c0,10.936,0,204.986,0,212.98c0,13.785,11.215,25,25,25h311.875
				c13.785,0,25-11.215,25-25c0-7.763,0-201.479,0-212.98C361.875,60.662,350.66,49.448,336.875,49.448z M351.875,287.428
				c0,8.271-6.728,15-15,15H25c-8.271,0-15-6.729-15-15v-170.96h341.875V287.428z M351.875,106.467H10v-32.02
				c0-8.271,6.729-15,15-15h311.875c8.272,0,15,6.729,15,15V106.467z"/>
			<path d="M38.85,177.49h21.854c5.29,0,9.579-4.289,9.579-9.579v-21.854c0-5.29-4.289-9.579-9.579-9.579H38.85
				c-5.29,0-9.579,4.289-9.579,9.579v21.854C29.271,173.201,33.559,177.49,38.85,177.49z"/>
			<path d="M91.314,177.49h21.854c5.29,0,9.579-4.289,9.579-9.579v-21.854c0-5.29-4.289-9.579-9.579-9.579H91.314
				c-5.29,0-9.579,4.289-9.579,9.579v21.854C81.735,173.201,86.024,177.49,91.314,177.49z"/>
			<path d="M143.779,177.49h21.854c5.29,0,9.579-4.289,9.579-9.579v-21.854c0-5.29-4.289-9.579-9.579-9.579h-21.854
				c-5.29,0-9.579,4.289-9.579,9.579v21.854C134.2,173.201,138.488,177.49,143.779,177.49z"/>
			<path d="M196.243,177.49h21.854c5.29,0,9.579-4.289,9.579-9.579v-21.854c0-5.29-4.289-9.579-9.579-9.579h-21.854
				c-5.29,0-9.579,4.289-9.579,9.579v21.854C186.664,173.201,190.953,177.49,196.243,177.49z"/>
			<path d="M248.707,177.49h21.854c5.29,0,9.579-4.289,9.579-9.579v-21.854c0-5.29-4.289-9.579-9.579-9.579h-21.854
				c-5.29,0-9.579,4.289-9.579,9.579v21.854C239.128,173.201,243.417,177.49,248.707,177.49z"/>
			<path d="M301.172,177.49h21.854c5.29,0,9.579-4.289,9.579-9.579v-21.854c0-5.29-4.288-9.579-9.579-9.579h-21.854
				c-5.29,0-9.579,4.289-9.579,9.579v21.854C291.593,173.201,295.882,177.49,301.172,177.49z"/>
			<path d="M98.476,220.374V198.52c0-5.29-4.289-9.579-9.579-9.579H67.043c-5.29,0-9.579,4.289-9.579,9.579v21.854
				c0,5.29,4.288,9.579,9.579,9.579h21.854C94.187,229.954,98.476,225.665,98.476,220.374z"/>
			<path d="M141.361,229.954c5.29,0,9.579-4.288,9.579-9.579v-21.854c0-5.29-4.289-9.579-9.579-9.579h-21.854
				c-5.29,0-9.579,4.289-9.579,9.579v21.854c0,5.29,4.289,9.579,9.579,9.579H141.361z"/>
			<path d="M193.826,229.954c5.29,0,9.579-4.288,9.579-9.579v-21.854c0-5.29-4.288-9.579-9.579-9.579h-21.854
				c-5.29,0-9.579,4.289-9.579,9.579v21.854c0,5.29,4.289,9.579,9.579,9.579H193.826z"/>
			<path d="M246.29,229.954c5.29,0,9.579-4.288,9.579-9.579v-21.854c0-5.29-4.289-9.579-9.579-9.579h-21.854
				c-5.29,0-9.579,4.289-9.579,9.579v21.854c0,5.29,4.288,9.579,9.579,9.579H246.29z"/>
			<path d="M298.754,229.954c5.29,0,9.579-4.288,9.579-9.579v-21.854c0-5.29-4.289-9.579-9.579-9.579H276.9
				c-5.29,0-9.579,4.289-9.579,9.579v21.854c0,5.29,4.289,9.579,9.579,9.579H298.754z"/>
			<path d="M38.85,282.418h21.854c5.29,0,9.579-4.289,9.579-9.579v-21.853c0-5.29-4.289-9.579-9.579-9.579H38.85
				c-5.29,0-9.579,4.289-9.579,9.579v21.853C29.271,278.129,33.559,282.418,38.85,282.418z"/>
			<path d="M323.025,241.407h-21.854c-5.29,0-9.579,4.289-9.579,9.579v21.853c0,5.29,4.289,9.579,9.579,9.579h21.854
				c5.29,0,9.579-4.289,9.579-9.579v-21.853C332.604,245.696,328.316,241.407,323.025,241.407z"/>
			<path d="M270.561,241.407H91.314c-5.29,0-9.579,4.289-9.579,9.579v21.853c0,5.29,4.289,9.579,9.579,9.579h179.247
				c5.29,0,9.579-4.289,9.579-9.579v-21.853C280.14,245.696,275.851,241.407,270.561,241.407z"/>
		</g>
	</g>
</g>
<g>
</g>
<g>
</g>
<g>
</g>
<g>
</g>
<g>
</g>
<g>
</g>
<g>
</g>
<g>
</g>
<g>
</g>
<g>
</g>
<g>
</g>
<g>
</g>
<g>
</g>
<g>
</g>
<g>
</g>
</svg>
